<mxfile host="app.diagrams.net" modified="2024-01-23T08:21:48.283Z" agent="Mozilla/5.0 (Windows NT 10.0; Win64; x64) AppleWebKit/537.36 (KHTML, like Gecko) Chrome/120.0.0.0 Safari/537.36" etag="SFHnvGz9dqp2GHmeoXQq" version="22.1.21" type="device">
  <diagram name="Page-1" id="SIwKm4nUPkbU5gBLlkQm">
    <mxGraphModel dx="1195" dy="701" grid="1" gridSize="10" guides="1" tooltips="1" connect="1" arrows="1" fold="1" page="1" pageScale="1" pageWidth="827" pageHeight="1169" math="0" shadow="0">
      <root>
        <mxCell id="0" />
        <mxCell id="1" parent="0" />
        <mxCell id="ub6G-4bFwMb0tMZ0WZEx-1" value="Borne de chargement RATP" style="shape=rect;html=1;verticalAlign=top;fontStyle=1;whiteSpace=wrap;align=center;" vertex="1" parent="1">
          <mxGeometry x="210" y="230" width="350" height="330" as="geometry" />
        </mxCell>
        <mxCell id="ub6G-4bFwMb0tMZ0WZEx-2" value="Client" style="shape=umlActor;html=1;verticalLabelPosition=bottom;verticalAlign=top;align=center;" vertex="1" parent="1">
          <mxGeometry x="140" y="260" width="30" height="60" as="geometry" />
        </mxCell>
        <mxCell id="ub6G-4bFwMb0tMZ0WZEx-3" value="Technicien RATP" style="shape=umlActor;html=1;verticalLabelPosition=bottom;verticalAlign=top;align=center;" vertex="1" parent="1">
          <mxGeometry x="620" y="430" width="30" height="60" as="geometry" />
        </mxCell>
        <mxCell id="ub6G-4bFwMb0tMZ0WZEx-4" value="Agent RATP" style="shape=umlActor;html=1;verticalLabelPosition=bottom;verticalAlign=top;align=center;" vertex="1" parent="1">
          <mxGeometry x="620" y="270" width="30" height="60" as="geometry" />
        </mxCell>
        <mxCell id="ub6G-4bFwMb0tMZ0WZEx-5" value="" style="edgeStyle=none;html=1;endArrow=block;endFill=0;endSize=12;verticalAlign=bottom;rounded=0;" edge="1" parent="1">
          <mxGeometry width="160" relative="1" as="geometry">
            <mxPoint x="635" y="420" as="sourcePoint" />
            <mxPoint x="635" y="360" as="targetPoint" />
          </mxGeometry>
        </mxCell>
        <mxCell id="ub6G-4bFwMb0tMZ0WZEx-6" value="Charger un titre&lt;br&gt;de transport" style="ellipse;whiteSpace=wrap;html=1;" vertex="1" parent="1">
          <mxGeometry x="220" y="265" width="140" height="70" as="geometry" />
        </mxCell>
        <mxCell id="ub6G-4bFwMb0tMZ0WZEx-7" value="Réparer la borne" style="ellipse;whiteSpace=wrap;html=1;" vertex="1" parent="1">
          <mxGeometry x="390" y="350" width="140" height="70" as="geometry" />
        </mxCell>
        <mxCell id="ub6G-4bFwMb0tMZ0WZEx-8" value="Diagnostiquer la panne" style="ellipse;whiteSpace=wrap;html=1;" vertex="1" parent="1">
          <mxGeometry x="390" y="460" width="140" height="70" as="geometry" />
        </mxCell>
        <mxCell id="ub6G-4bFwMb0tMZ0WZEx-9" value="&amp;lt;&amp;lt;include&amp;gt;&amp;gt;" style="edgeStyle=none;html=1;endArrow=open;verticalAlign=bottom;dashed=1;labelBackgroundColor=none;rounded=0;" edge="1" parent="1" source="ub6G-4bFwMb0tMZ0WZEx-7" target="ub6G-4bFwMb0tMZ0WZEx-8">
          <mxGeometry width="160" relative="1" as="geometry">
            <mxPoint x="390" y="360" as="sourcePoint" />
            <mxPoint x="550" y="360" as="targetPoint" />
          </mxGeometry>
        </mxCell>
        <mxCell id="ub6G-4bFwMb0tMZ0WZEx-10" value="" style="edgeStyle=none;html=1;endArrow=none;verticalAlign=bottom;rounded=0;entryX=0;entryY=0.3333333333333333;entryDx=0;entryDy=0;entryPerimeter=0;" edge="1" parent="1" source="ub6G-4bFwMb0tMZ0WZEx-7" target="ub6G-4bFwMb0tMZ0WZEx-3">
          <mxGeometry width="160" relative="1" as="geometry">
            <mxPoint x="390" y="360" as="sourcePoint" />
            <mxPoint x="550" y="360" as="targetPoint" />
          </mxGeometry>
        </mxCell>
        <mxCell id="ub6G-4bFwMb0tMZ0WZEx-11" value="Opérations maintenance" style="ellipse;whiteSpace=wrap;html=1;" vertex="1" parent="1">
          <mxGeometry x="390" y="270" width="140" height="70" as="geometry" />
        </mxCell>
        <mxCell id="ub6G-4bFwMb0tMZ0WZEx-12" value="" style="edgeStyle=none;html=1;endArrow=none;verticalAlign=bottom;rounded=0;entryX=0.361;entryY=0.4;entryDx=0;entryDy=0;entryPerimeter=0;" edge="1" parent="1" source="ub6G-4bFwMb0tMZ0WZEx-11" target="ub6G-4bFwMb0tMZ0WZEx-4">
          <mxGeometry width="160" relative="1" as="geometry">
            <mxPoint x="390" y="360" as="sourcePoint" />
            <mxPoint x="550" y="360" as="targetPoint" />
          </mxGeometry>
        </mxCell>
        <mxCell id="ub6G-4bFwMb0tMZ0WZEx-13" value="" style="edgeStyle=none;html=1;endArrow=none;verticalAlign=bottom;rounded=0;exitX=0.472;exitY=0.331;exitDx=0;exitDy=0;exitPerimeter=0;" edge="1" parent="1" source="ub6G-4bFwMb0tMZ0WZEx-2" target="ub6G-4bFwMb0tMZ0WZEx-6">
          <mxGeometry width="160" relative="1" as="geometry">
            <mxPoint x="390" y="360" as="sourcePoint" />
            <mxPoint x="270" y="300" as="targetPoint" />
          </mxGeometry>
        </mxCell>
      </root>
    </mxGraphModel>
  </diagram>
</mxfile>
